<svg id="Layer_1" data-name="Layer 1" xmlns="http://www.w3.org/2000/svg" viewBox="0 0 1155.13 1044.95"><defs><style>.cls-1{fill:#4abfed;}.cls-2{fill:#a5dff5;}.cls-3{fill:#a3def5;}</style></defs><path class="cls-1" d="M53.14,1035.79c-1-4.08-4.56-5.16-7.73-6.82C18.09,1014.63,5,989.16,11.14,962.52c6.62-28.58,29.13-44.81,60.58-46.25,193.44-8.83,331.24-101.1,411.66-277.1,24.45-53.52,34.32-110.95,34.48-169.7q.54-196.32,0-392.65c0-23.78,6.4-43.72,27.37-57a59,59,0,0,1,88.56,33.15c3,9.89,3.27,20,3.27,30.3q-.1,195.42,0,390.85c0,214.83,165.22,405.21,378.35,436.22,22.59,3.29,45.21,5.71,68,6.11,34.08.61,57.17,21.26,60.49,54.22,3,29.63-16.25,54.49-48,62-14.33,4-29.38-1.79-43.64,3.16h-10.82c-46.83-2.79-92.77-10.4-137.19-25.85-130.81-45.46-233.8-125.89-306.8-244-6.58-10.63-12.54-21.66-20.42-33.31-12.31,20.28-23.29,39.53-36,57.66q-138.81,197.88-376.9,240.41c-18.83,3.36-38.1,1.35-56.88,5H96.42a90.06,90.06,0,0,0-39.68,0Z"/><path class="cls-2" d="M1052.26,1035.79c14.08-7.46,29.09-2.11,43.64-3.16a18.54,18.54,0,0,0-.36,3.16Z"/><path class="cls-3" d="M56.74,1035.79a46.91,46.91,0,0,1,39.68,0Z"/><path class="cls-1" d="M466.83,271c0,60.62.14,121.24,0,181.85-.22,80.77-17,157.43-62,225.57C325.33,798.74,213.46,861.74,68.3,863.13c-30.88.3-55.33-22.66-58.21-52.67a58.44,58.44,0,0,1,47.1-63.08c26.44-5.07,53.62-3.15,80.16-10,122.41-31.38,209-141.31,209-267.13q.06-189.94.12-379.9a211.29,211.29,0,0,1,2.63-34c4.28-25.75,29.55-46,56.84-46.41s54,20.6,58.18,46.94a223.5,223.5,0,0,1,2.56,34C467,150.94,466.83,211,466.83,271Z"/><path class="cls-1" d="M807,278.36q0,95.42,0,190.84C807,618,927.22,741.26,1076,745c38.37,1,61.58,18.22,66.85,49.71,6.21,37.13-19.4,68.3-57.3,68.47-112.11.49-207.34-40.32-285.28-120.18-75.2-77-111.59-170.72-112.13-277.94-.66-129.62-.26-259.25-.1-388.87.05-38.26,24.68-65.52,58.83-66.08,34.46-.57,60,27.43,60.08,66.62C807.12,143.93,807,211.15,807,278.36Z"/><path class="cls-1" d="M294.83,279c0,66,1,132.12-.22,198.14C292.46,594.88,190.47,693.74,73,693.45c-36.08-.09-62.49-24.2-63.07-57.55-.6-34.25,25.25-59.58,62.16-60.92,50-1.81,90.86-35,102.05-83.53,2-8.64,2-17.85,2.05-26.8q.18-193.65.13-387.3c0-34.26,17.3-58.4,45.7-65.08,37.89-8.91,72.39,16.69,72.86,56,.83,70.24.23,140.5.23,210.75Z"/><path class="cls-1" d="M858,287.81c0-80.25-.37-146.3.13-212.35.33-44.41,34-72.62,74.1-63.21,26.74,6.27,44.36,28.19,44.55,57.93.47,70.24.22,140.5.24,210.75q0,91,0,181.93c.07,63.83,43.07,108.92,106.78,112.13,35.17,1.77,62.28,28.89,60.82,60.85-1.54,33.6-27.86,57.48-63.51,57.61-109.58.38-209.1-88-220.08-196.7C853.49,422.52,860.27,348,858,287.81Z"/><path class="cls-1" d="M128.42,264.57q0,95.43,0,190.87c0,38.86-24.09,65.13-59.29,65s-59.21-26.28-59.24-65q-.12-190,0-379.93C9.91,38.07,36.24,9.16,69.17,10c35.15.87,59.21,27.4,59.24,65.53Q128.5,170,128.42,264.57Z"/><path class="cls-1" d="M1026.56,264q0-95.4,0-190.81c0-36.25,21.46-60.51,55.36-63,31.07-2.34,56.78,20.55,61.84,55.2a99.29,99.29,0,0,1,1.12,14.31q.09,186.3,0,372.62c-.05,35.34-15.54,57.79-44.48,66-36.72,10.37-73.43-16.24-73.71-54.42C1026.21,397.17,1026.56,330.56,1026.56,264Z"/></svg>